<svg xmlns="http://www.w3.org/2000/svg" xmlns:xlink="http://www.w3.org/1999/xlink" viewBox="0 0 64 20">
  <defs>
    <path id="falter-a" d="M0 .1h9.98v18.97H0z"/>
  </defs>

  <mask id="falter-b" fill="#fff">
    <use xlink:href="#falter-a"/>
  </mask>

  <path fill="#1D1D1B" mask="url(#falter-b)" d="M9.51 4.35l-1.65-.2c.03-.3.18-1.37.03-1.6-.31-.44-.47-.54-1.55-.54H5.08v5.84H6.7c.31 0 .44-.32.52-.87l1.6.18-.52 4.3-1.6-.22c.05-.3.13-1.15.03-1.32-.2-.37-.36-.45-.98-.45h-.67v7.63c0 .38.18.5.49.5h.54v1.47H0V17.6h.57c.3 0 .4-.15.4-.5V2.38c0-.4-.2-.5-.53-.5H0V.43h7.86c.31 0 .44-.05.5-.32l1.62.2-.47 4.05z" />

  <path fill="#1D1D1B" d="M13.02 6.13l-.98 7.16h1.98l-1-7.16zm.77 12.98v-1.44l.34-.03c.33-.02.48-.12.43-.42l-.3-2.17h-2.5l-.26 2.12c-.06.35.07.5.33.5h.36v1.44H8.76v-1.47h.31c.23 0 .42-.17.47-.47l2.68-15.54c.05-.3.05-.72-.08-1.17h3.69l2.75 16.78c.06.25.26.38.52.4l.3.03v1.44H13.8zM30.08 19.56l-1.7-.15c.02-.2-.05-.3-.26-.3h-7.7v-1.52h.51c.33 0 .46-.22.46-.5V2.32c0-.27-.18-.4-.4-.4h-.58V.47h6.06v1.47h-.57c-.33 0-.4.17-.4.52v14.97h1.41c1.44 0 1.86-.38 2.14-2.2l1.52.18-.49 4.16z"/>

  <path fill="#1D1D1B" d="M39.93 4.36l-1.73-.2c.03-.27.2-1.02.03-1.44-.21-.45-.7-.52-1.06-.52h-.75v14.92c0 .3.13.52.5.52h.58v1.47h-6.26v-1.47h.6c.3 0 .48-.2.48-.6V2.2h-.59c-1.21 0-1.5.8-1.68 2.16l-1.65-.2.4-3.9c.27.07 1.23.2 1.77.2h7.73c.26 0 .36-.03.44-.32l1.6.2-.41 4.02zM50.75 19.48l-1.6-.12c0-.15-.1-.25-.33-.25h-7.76v-1.47h.57c.36 0 .41-.17.41-.52V2.55c0-.5-.13-.62-.49-.62h-.49V.46h7.78c.37 0 .55-.03.6-.32l1.6.2-.47 4.05-1.67-.23c.05-.3.2-1.29.02-1.64-.15-.27-.57-.47-.95-.47h-1.83v5.62h1.6c.46 0 .46-.2.54-.87l1.62.2-.49 4.25-1.65-.22c.03-.28.13-1.15.1-1.27-.15-.4-.46-.47-1-.47h-.72v8.18h1.75c1.26 0 1.57-.67 1.8-2.42l1.6.18-.54 4.25zM57.35 2.07h-.15v7.46l.15-.02c1.1-.03 1.78-1.02 1.78-3.76 0-2.8-1-3.68-1.78-3.68zm5.08 17.83c-2.2-2.48-3.8-4.82-4.82-8.6h-.41v5.9c0 .27.07.44.51.44h.47v1.47h-6.06v-1.47h.51c.39 0 .47-.17.47-.45V2.5c0-.39-.16-.56-.54-.56h-.44V.46h4.66c3.8 0 6.55 1.47 6.55 5.25 0 2-.72 3.72-2.16 4.52.33 1.8 1.31 6.32 2.7 9.05l-1.44.62z"/>
</svg>
