<svg xmlns="http://www.w3.org/2000/svg" viewBox="0 0 55 25"><g fill="none" fill-rule="evenodd"><path fill="#1A1919" d="M13.14 21.43h.26L12.94 24h-.26l-.41-2.09-.4 2.09h-.26l-.45-2.57h.25l.34 2.07.4-2.07h.25l.4 2.07.34-2.07M17.82 21.43l.52 1.25.51-1.25h.29l-.68 1.56V24h-.24v-1.01l-.69-1.56h.29M23.41 24v-2.57H24.26l.05.02.05.02.04.02.04.03.04.04.07.08.06.08.03.09.02.1.01.09v.2l-.01.1-.03.08-.03.08-.04.07-.05.06-.06.05.07.05.05.04.06.06.02.04.03.05.02.05.02.06.02.07v.07l.02.08v.1l-.01.09-.01.08-.02.07-.02.07-.03.06-.03.06-.03.05-.04.05-.07.07-.07.05-.07.03-.06.01h-.89zm.24-1.47h.53l.05-.01.04-.02.04-.02.03-.02.03-.04.02-.03.02-.04.02-.07.01-.08V22l-.03-.04-.02-.05-.02-.03-.02-.03-.03-.03-.06-.04-.07-.03-.05-.02h-.49v.8zm0 1.18h.62l.04-.02.04-.01.03-.02.03-.03.02-.03.04-.08.03-.08.02-.08.01-.09v-.08l-.02-.1-.03-.09-.04-.06-.05-.05-.06-.03-.07-.02h-.08l-.08-.01h-.45v.88zM30.45 21.65l.08.12.06.12.06.13.04.14.03.15.02.14.02.15v.27l-.01.15-.03.14-.03.15-.04.14-.06.13-.06.12-.08.12-.04.04-.05.04-.06.05-.07.04-.07.03-.09.03-.08.02-.1.01h-.09l-.09-.03-.08-.03-.08-.03-.06-.04-.06-.05-.05-.04-.04-.04-.08-.12-.07-.12-.05-.13-.05-.14-.03-.15-.02-.14-.01-.15v-.27l.01-.15.02-.14.03-.15.05-.14.05-.13.07-.12.08-.12.04-.04.05-.04.06-.05.06-.04.08-.03.08-.03.1-.02.09-.01h.09l.08.03.09.03.07.03.07.04.06.05.05.04.04.04zm-1 .28l-.04.07-.03.09-.04.09-.03.1-.02.11-.02.11-.01.12v.35l.03.11.02.1.03.1.04.1.03.09.05.07.04.06.05.05.05.04.06.03.06.03.06.02.06.01h.11l.06-.01.06-.02.06-.03.05-.03.06-.04.05-.05.04-.06.05-.07.04-.09.03-.1.03-.1.02-.1.02-.11v-.47l-.02-.11-.02-.1-.03-.11-.04-.1-.03-.08-.05-.07-.04-.06-.05-.05-.06-.04-.05-.03-.06-.03-.06-.02-.06-.01h-.11l-.06.01-.06.02-.06.03-.06.03-.05.04-.05.05-.04.06zM35.15 21.43h.9l.1.02.05.02.05.01.05.03.04.03.04.04.03.04.03.06.03.06.02.07.02.08.01.09.01.1v.22l-.02.09-.03.07-.03.07-.05.07-.05.06-.06.07.06.06.05.05.04.06.02.06.02.08.01.1.01.25v.2l.02.15.01.06.02.04.02.04.03.03V24h-.28l-.02-.09-.02-.08-.02-.15v-.51l-.02-.05-.02-.06-.02-.04-.03-.05-.03-.03-.05-.02-.06-.02H35.38V24h-.23v-2.57zm.23.3v.87H36.02l.05-.01.06-.02.05-.04.04-.05.03-.07.03-.09.01-.1V22l-.01-.05-.02-.04-.02-.05-.02-.03-.03-.03-.02-.02-.03-.02-.06-.02-.07-.01h-.63zM42.17 22.22l-.05-.16-.03-.07-.04-.06-.03-.06-.04-.05-.05-.04-.05-.03-.04-.03-.06-.02-.04-.01-.05-.01-.06.01-.05.01-.05.02-.06.03-.05.03-.04.04-.04.05-.04.06-.04.07-.04.09-.03.09-.02.1-.02.11-.02.11v.12l-.01.11.01.12v.12l.02.11.02.11.02.1.03.09.04.09.04.07.04.06.04.05.04.04.05.03.06.03.05.02.05.01.06.01.05-.01.05-.01.05-.02.05-.03.04-.03.05-.04.04-.05.03-.06.05-.1.05-.11.03-.13.02-.14h.24l-.03.2-.03.1-.03.11-.03.09-.04.09-.05.09-.05.08-.04.04-.05.04-.05.05-.06.04-.07.03-.07.03-.08.02-.09.01-.08-.01-.08-.02-.07-.03-.07-.03-.07-.04-.05-.05-.04-.04-.04-.04-.07-.12-.06-.12-.05-.13-.04-.14-.03-.15-.02-.14-.01-.15-.01-.14.01-.13.01-.15.02-.14.03-.15.04-.14.05-.13.06-.12.07-.12.04-.04.04-.04.05-.05.07-.04.07-.03.07-.03.08-.02.08-.01.09.01.08.02.07.03.07.03.06.04.05.05.05.04.04.04.04.06.03.07.07.14.05.15.04.15h-.24M46.76 21.43h1.29v.3l-1.07 1.98h1.08V24h-1.37v-.28l1.07-2h-1v-.29M52.48 24h-.24l.65-2.57h.29L53.8 24h-.25l-.19-.77h-.69l-.19.77zm.26-1.04h.56l-.27-1.13-.3 1.13zM19.91 16.62l-.05.28-.06.27-.07.26-.09.26-.1.24-.1.22-.13.22-.07.1-.07.1-.08.09-.08.08-.08.09-.1.07-.08.07-.1.07-.1.06-.11.06-.11.05-.12.04-.12.04-.13.03-.13.02-.14.02-.14.02h-.31l-.15-.02-.14-.02-.13-.04-.14-.04-.12-.05-.12-.06-.12-.07-.11-.07-.1-.08-.11-.1-.1-.1-.1-.1-.09-.11-.09-.12-.08-.13-.1.13-.1.12-.12.11-.11.11-.13.1-.13.09-.14.08-.14.08-.14.06-.15.06-.16.05-.15.04-.15.04-.17.02-.16.01h-.38l-.21-.02-.2-.04-.2-.05-.18-.06-.18-.07-.17-.09-.15-.1-.16-.1-.14-.12-.14-.12-.13-.14-.12-.14-.11-.15-.1-.16-.1-.16-.1-.17-.09-.18-.08-.18-.07-.18-.07-.18-.06-.2-.05-.18-.04-.2-.04-.19-.04-.2-.03-.19-.03-.2-.03-.37v-.71l.02-.32.03-.3.04-.28.06-.27.06-.25.07-.24.09-.23.09-.22.1-.2.11-.2.11-.18.13-.16.12-.16.14-.16.14-.14.14-.13.15-.12.15-.12.15-.1.16-.11.16-.1.32-.19.32-.16.31-.16.61-.3.31-.16.15-.08.13-.09.12-.08.11-.1.1-.09.1-.09.08-.1.07-.1.06-.12.04-.11.04-.12.03-.14.02-.13v-.27l-.03-.12-.04-.11-.05-.11-.06-.11-.08-.1-.09-.1-.1-.09-.1-.08-.12-.07-.12-.07-.13-.05-.14-.04-.14-.04-.15-.02h-.37l-.22.03-.2.04-.21.06-.2.07-.19.08-.17.1-.18.12-.17.14-.16.14-.15.17-.15.18-.14.2-.13.2-.12.23-.12.24-.41-.05v-.2l.01-.21.03-.21.03-.21.04-.2.05-.2.06-.21.06-.2.07-.2.08-.2.09-.19.1-.19.1-.18.1-.18.12-.17.13-.16.13-.16.14-.15.14-.15.15-.13.16-.13.17-.12.17-.11.18-.1.19-.1.19-.07.2-.07.2-.06.21-.04.22-.04.22-.02h.46l.23.02.22.04.22.04.2.06.21.07.2.08.2.1.18.1.18.12.18.13.17.14.16.14.15.16.15.16.14.18.13.18.13.19.11.2.12.2.1.22.09.22.09.22.07.24.07.24.06.24.06.25.04.25.03.26.02.26.02.27V16.76l.03.07.03.07.04.06.04.04.05.04.06.02h.14l.08-.04.07-.04.06-.06.05-.08.05-.09.04-.1.03-.12.42.09zm-4.67-6.86l-.21.23-.22.22-.1.1-.1.12-.1.11-.1.12-.07.12-.08.12-.08.12-.06.12-.07.13-.06.12-.05.13-.05.13-.08.27-.07.27-.06.28-.04.28-.03.29-.02.3-.02.29v.3l-.01.62v.32l.04.44.03.25.03.26.05.27.05.27.07.25.07.25.1.22.04.1.05.1.06.09.06.08.06.07.07.05.07.05.08.03.08.02h.2l.06-.01.05-.02.05-.03.05-.02.05-.04.04-.04.04-.04.03-.05.02-.05.03-.06.02-.06.01-.07v-.07l.01-.07.01-7.28zM5.97 6.52v-.09l-.02-.07-.02-.09-.02-.07-.04-.07-.04-.07-.04-.07-.05-.06-.06-.06-.06-.05-.07-.05-.07-.03-.07-.04-.08-.02-.09-.01H5.01l-.07.03-.07.02-.07.03-.06.04-.06.05-.06.05-.06.06-.05.06-.06.07-.05.08-.1.16-.08.18-.09.2-.07.22-.07.23-.06.24-.06.24-.05.26-.04.27-.04.26-.04.27-.03.27-.05.53-.04.52-.02.48-.01.43-.01.37v1l.02.8.02.48.04.51.05.54.07.54.08.53.05.25.06.25.06.24.07.23.07.21.09.2.08.18.1.17.1.15.06.06.06.06.06.05.06.04.06.04.07.04.07.02.07.02.08.01H5.24l.09-.01.08-.03.07-.03.07-.04.07-.04.06-.05.06-.06.05-.06.04-.07.04-.07.04-.07.02-.08.02-.08.02-.08V6.52zm0 11.85l-.06.08-.07.09-.08.09-.09.08-.1.09-.1.08-.11.08-.12.08-.13.07-.13.07-.14.05-.15.05-.15.04-.15.03-.17.02h-.39l-.22-.03-.22-.04-.21-.06-.2-.08-.2-.1-.2-.11-.18-.13-.18-.14-.18-.16-.17-.17-.15-.2-.16-.19-.15-.22-.13-.23-.14-.24-.13-.26-.11-.27-.11-.28-.1-.3-.1-.3-.1-.32-.07-.33-.07-.34-.07-.35-.06-.36-.04-.37-.04-.38-.03-.4-.03-.4v-.4l-.01-.42v-.42l.01-.4.03-.4.03-.4.04-.38.04-.37.06-.36.07-.35.07-.34.08-.33.08-.32.1-.3.1-.3.12-.28.11-.27.13-.25.14-.25.13-.23.15-.21.16-.2.15-.19.17-.17.18-.16.18-.14.18-.13.2-.1.2-.1.2-.08.1-.04.11-.02.22-.05.22-.02.23-.02.16.01.17.02.15.03.15.04.15.05.14.06.13.06.13.07.12.08.11.08.1.09.1.08.09.09.08.08.07.09.06.08v-.7h3.95v.45h-.1L9.76 5l-.07.03-.06.03-.04.05-.04.04-.03.06-.03.06-.01.05-.02.07v.12l-.01.12V19.5l-.01.23-.02.24-.02.24-.03.24-.03.24-.05.25-.05.24-.05.24-.07.24-.07.23-.08.24-.09.23-.1.22-.1.22-.12.21-.12.2-.13.2-.14.2-.15.17-.17.17-.17.16-.18.15-.2.13-.2.12-.2.11-.23.1-.11.04-.12.03-.12.04-.13.02-.13.03-.12.02-.14.02h-.13l-.14.01h-.38l-.24-.02-.23-.04-.23-.05-.22-.06-.21-.07-.21-.1-.2-.1-.2-.1-.2-.12-.18-.13-.19-.14-.17-.14-.17-.16-.16-.16-.15-.17-.15-.18-.14-.18-.14-.2-.13-.19-.12-.2-.11-.2-.1-.2-.1-.22-.1-.21-.08-.21-.08-.22-.06-.22-.06-.22-.05-.21-.04-.22-.04-.22.42-.11.09.17.1.18.12.17.14.17.14.16.16.15.16.15.19.13.18.13.2.11.21.1.22.08.23.07.11.02.12.03.12.02h.12l.12.02h.25l.11-.02.12-.01.1-.03.11-.03.1-.04.1-.05.1-.05.09-.06.1-.06.08-.07.07-.08.08-.08.08-.1.06-.09.07-.1.06-.1.06-.12.05-.12.05-.12.05-.13.04-.13.04-.14.03-.15.04-.14.02-.16.04-.32.03-.33v-.35l.01-.27zM44.9 4.52l-.6 1.43h-1.6V16l.01.12.02.1.03.09.03.09.04.07.04.07.05.05.05.05.05.04.05.04.06.02.05.03.06.01.05.01h.13l.06-.02.07-.01.06-.03.06-.03.06-.05.06-.04.06-.06.05-.06.05-.08.05-.08.05-.08.09-.2.08-.22.43.11-.06.35-.06.34-.08.34-.1.31-.11.3-.06.15-.07.13-.06.14-.08.13-.07.12-.09.12-.08.12-.1.11-.09.1-.1.09-.11.09-.1.08-.12.08-.12.07-.12.06-.13.05-.13.05-.14.04-.15.03-.15.02-.15.02H41.72l-.15-.02-.13-.01-.14-.03-.13-.03-.13-.04-.12-.04-.13-.05-.11-.06-.12-.06-.11-.07-.1-.07-.1-.08-.09-.08-.09-.09-.09-.1-.08-.1-.08-.1-.08-.11-.06-.12-.06-.11-.06-.13-.05-.12-.05-.14-.04-.13-.04-.13-.03-.15-.03-.14-.02-.15-.01-.15-.01-.16V5.95h-1.33v-.38L42.7.1v4.42h2.2"/><path fill="#1A1919" d="M29.05 4.52l-5.02 13.65h.54l.19-.01.18-.02.19-.03.17-.04.18-.06.17-.07.17-.08.16-.09.16-.1.16-.11.15-.12.15-.14.14-.13.14-.15.13-.15.13-.17.13-.17.12-.17.11-.19.11-.18.11-.2.1-.2.09-.2.09-.21.09-.21.08-.22.07-.21.06-.23.06-.22.06-.22.05-.23.04-.23h.44v5.68h-9.27l5.1-13.74h-.4l-.18.02-.17.02-.17.03-.18.05-.16.05-.17.06-.16.06-.16.08-.15.08-.16.09-.15.09-.14.11-.15.11-.13.11-.14.12-.13.12-.13.13-.12.14-.12.14-.11.14-.1.15-.11.15-.1.16-.09.15-.09.16-.07.17-.08.16-.07.17-.06.16-.06.18-.05.17h-.44l.39-4.36h8.58M54.7 16.62l-.06.28-.06.27-.08.26-.08.26-.1.24-.1.22-.13.22-.07.1-.07.1-.08.09-.08.08-.08.09-.1.07-.09.07-.1.07-.1.06-.1.06-.11.05-.12.04-.13.04-.12.03-.14.02-.13.02-.15.02h-.3l-.15-.02-.14-.02-.14-.04-.13-.04-.12-.05-.13-.06-.11-.07-.11-.07-.11-.08-.1-.1-.1-.1-.1-.1-.09-.11-.09-.12-.08-.13-.1.13-.1.12-.12.11-.12.11-.12.1-.13.09-.14.08-.14.08-.14.06-.16.06-.15.05-.15.04-.16.04-.16.02-.16.01h-.38l-.21-.02-.2-.04-.2-.05-.18-.06-.18-.07-.17-.09-.16-.1-.15-.1-.14-.12-.14-.12-.13-.14-.12-.14-.11-.15-.11-.16-.1-.16-.1-.17-.08-.18-.08-.18-.07-.18-.07-.18-.06-.2-.05-.18-.05-.2-.04-.19-.03-.2-.03-.19-.03-.2-.02-.18v-.2l-.02-.18v-.52l.03-.32.03-.3.04-.28.05-.27.07-.25.07-.24.09-.23.09-.22.1-.2.1-.2.12-.18.13-.16.12-.16.14-.16.14-.14.14-.13.15-.12.15-.12.15-.1.16-.11.16-.1.32-.19.32-.16.31-.16.61-.3.31-.16.15-.08.13-.09.12-.08.11-.1.1-.09.1-.09.08-.1.06-.1.06-.12.05-.11.04-.12.03-.14.01-.13.01-.15v-.12l-.03-.12-.04-.11-.05-.11-.07-.11-.07-.1-.09-.1-.1-.09-.1-.08-.12-.07-.12-.07-.13-.05-.14-.04-.15-.04-.15-.02h-.37l-.21.03-.21.04-.2.06-.2.07-.19.08-.18.1-.17.12-.17.14-.16.14-.15.17-.15.18-.14.2-.13.2-.12.23-.12.24-.42-.05v-.2l.02-.21.03-.21.03-.21.04-.2.05-.2.05-.21.07-.2.07-.2.08-.2.09-.19.1-.19.1-.18.1-.18.12-.17.13-.16.13-.16.14-.15.14-.15.15-.13.16-.13.17-.12.17-.11.18-.1.18-.1.2-.07.2-.07.2-.06.21-.04.21-.04.23-.02h.46l.23.02.22.04.21.04.21.06.21.07.2.08.2.1.18.1.18.12.18.13.16.14.17.14.15.16.15.16.14.18.13.18.12.19.12.2.11.2.1.22.1.22.09.22.07.24.07.24.06.24.05.25.04.25.04.26.02.26.02.27V16.76l.02.07.03.07.04.06.05.04.05.04.06.02H53.9l.07-.04.07-.04.06-.06.05-.08.04-.09.04-.1.04-.12.42.09zm-4.68-6.86l-.21.23-.22.22-.1.1-.11.12-.1.11-.09.12-.08.12-.08.12-.07.12-.07.12-.06.13-.06.12-.05.13-.05.13-.08.27-.08.27-.05.28-.04.28-.03.29-.03.3-.01.29-.01.3v.94l.04.44.02.25.04.26.04.27.06.27.06.25.08.25.09.22.05.1.05.1.06.09.06.08.06.07.07.05.07.05.08.03.07.02H49.55l.06-.01.05-.02.05-.03.05-.02.04-.04.04-.04.04-.04.04-.05.02-.05.03-.06.01-.06.02-.07v-.07l.01-.07V9.76zM38.46 11.8v-.4l-.02-.38-.02-.38-.04-.38-.04-.36-.04-.36-.06-.35-.07-.35-.07-.33-.09-.33-.09-.32-.1-.3-.1-.3-.12-.29-.13-.27-.13-.27-.14-.25-.15-.23-.16-.23-.17-.21-.17-.2-.19-.18-.2-.17-.19-.15-.21-.14-.22-.11-.1-.06-.12-.04-.12-.05-.11-.04-.25-.07-.12-.02-.12-.03-.13-.01-.13-.01-.13-.01h-.4l-.26.03-.25.05-.25.07-.24.09-.23.1-.23.11-.22.14-.21.15-.2.17-.2.18-.19.2-.18.21-.17.23-.17.23-.15.25-.15.27-.14.27-.13.29-.13.3-.1.3-.11.32-.1.33-.08.33-.08.35-.07.35-.05.36-.05.36-.04.38-.02.38-.02.38v.78l.02.38.02.38.04.38.05.36.05.36.07.35.08.35.08.33.1.33.1.32.11.3.13.3.13.29.14.27.15.26.15.25.17.24.17.23.18.2.19.2.2.19.2.17.21.15.22.13.23.12.23.1.12.05.12.04.12.03.13.03.12.03.13.02.13.02.13.01.13.01h.39l.24-.03.24-.04.22-.05.22-.07.22-.08.2-.1.2-.1.18-.13.18-.13.18-.14.16-.16.16-.16.15-.17.14-.18.14-.2.13-.2.12-.2.12-.21.1-.22.1-.23.1-.22.1-.24.08-.24.08-.24.06-.24.07-.25.06-.25.05-.25.05-.25.04-.26.04-.25-.4-.16-.2.35-.1.2-.11.2-.13.2-.14.2-.14.2-.16.18-.17.18-.09.08-.1.08-.09.08-.1.07-.1.07-.1.05-.1.06-.12.05L36 16l-.12.04-.12.03-.12.02-.13.01H35.21l-.16-.02-.15-.03-.15-.04-.14-.05-.14-.07-.12-.07-.12-.08-.11-.1-.1-.1-.1-.1-.1-.13-.1-.12-.07-.14-.08-.14-.08-.15-.06-.15-.06-.16-.06-.17-.05-.17-.05-.17-.05-.18-.07-.37-.03-.2-.03-.19-.05-.4-.03-.4-.03-.4h5.54zm-4.39-6.77l.08.01.06.02.07.04.06.05.06.06.06.08.06.1.05.1.06.1.05.13.04.14.05.15.05.16.04.17.08.37.04.2.03.2.06.45.06.47.04.5.03.53.03.55.02.57v.59H32.9v-.59l.02-.57.02-.55.04-.53.04-.5.05-.47.07-.44.07-.41.08-.37.09-.33.1-.29.04-.12.06-.12.05-.1.06-.09.06-.08.06-.06.07-.05.06-.04.07-.02h.06z"/><path fill="#000" d="M7.8 23.93l.1-.1.1-.13.1-.12.1-.12.09-.13.08-.13.09-.14.08-.14.14-.28.14-.3.11-.3.1-.32.1-.31.07-.32.06-.31.05-.32.03-.3.03-.31.02-.3V5.44l.02-.08.02-.08.03-.08.04-.08.05-.06L9.6 5l.06-.03.08-.02.08-.02h.05v-.38H6.02v.82l-.09-.13-.06-.09-.08-.09-.08-.09-.09-.08-.1-.09-.1-.08-.12-.08-.12-.07-.12-.07-.13-.06-.13-.05-.14-.05-.15-.04-.15-.03-.15-.01H3.78l-.14.02-.13.03-.13.03-.13.03-.13.05-.13.05-.12.05-.12.07-.12.07-.12.07-.12.1-.11.08-.11.1-.11.1-.12.12-.1.12-.12.13-.1.14-.1.14-.1.16-.1.15-.09.17-.09.17-.08.17-.08.19-.08.18-.07.2-.07.2-.07.2-.07.21L.56 8l-.05.22-.1.46-.05.24-.08.48-.04.25-.02.26-.03.25-.04.53-.03.55v1.12l.03.55.04.53.06.51.07.5.09.48.1.45.11.45.14.4.07.21.07.2.08.18.08.19.09.17.09.17.09.17.1.16.1.15.1.14.1.14.1.13.12.13.11.11.11.1.11.1.11.1.12.08.12.07.12.07.12.07.13.05.12.06.13.04.13.04.13.03.13.02.14.02H4.2l.15-.01.15-.03.15-.04.14-.04.13-.06.13-.06.12-.07.12-.07.11-.08.11-.08.1-.08.09-.09.08-.09.08-.09.06-.09.1-.13-.01.16v.27l-.01.23-.01.22-.02.22-.02.21-.03.2-.04.2-.04.18-.05.18-.06.16-.06.16-.07.16-.08.14-.08.13-.08.13-.1.11-.1.11-.12.11-.14.1-.14.09-.15.06-.16.06-.16.04-.17.02H3.7l-.13-.02-.12-.02-.24-.05-.23-.07-.23-.09-.2-.1-.2-.11-.2-.13-.17-.13-.16-.15-.15-.15-.14-.15-.13-.16-.11-.16-.1-.16-.09-.16-.02-.04-.04.01-.24.07-.05.01v.05l.04.22.05.23.06.22.06.22.07.22.08.2.08.22.1.21.1.2.1.21.12.2.12.19.12.18.14.18.13.18.15.17.12.12.13.14.14.13.15.13.16.12.17.13.18.11.19.12.2.1.2.1.23.08.22.07.25.06.25.04.25.03h.63l.17-.03.16-.02.17-.03.16-.05.16-.04.15-.06.15-.06.14-.08.15-.08.14-.08.13-.1.13-.1.13-.1.12-.12zM4.56 17.7l-.09-.1-.08-.1-.08-.11-.07-.13-.07-.14-.06-.15-.06-.16-.06-.16-.05-.18-.05-.18-.05-.19-.03-.2-.08-.4-.06-.41-.06-.43-.04-.44-.03-.43-.02-.43-.02-.42-.01-.4-.01-.38v-1.12l.04-.82.02-.43.03-.43.04-.44.06-.43.06-.42.08-.4.08-.38.1-.36.06-.17.06-.15.06-.15.07-.14.07-.13.08-.12.08-.1.09-.1.07-.06.06-.05.08-.04.07-.04.07-.03.08-.02.08-.01h.16l.08.01.07.02.08.03.07.03.07.04.07.05.06.06.06.07.05.07.05.08.04.08.03.09.03.09.01.09V17.16l-.01.08-.03.1-.03.08-.04.08-.05.08-.05.07-.06.07-.06.06-.07.04-.07.05-.07.03-.08.03-.07.02-.08.01h-.16L5 17.95l-.08-.02-.07-.03-.07-.04-.08-.04-.06-.05-.07-.07zM24.85 5.3l-.02.06-5.05 13.61-.03.07h9.15v-5.58h-.35l-.01.04-.04.22-.05.22-.06.22-.06.22-.07.21-.07.22-.08.21-.08.21-.09.2-.1.2-.1.2-.11.19-.1.19-.12.18-.12.18-.13.17-.13.16-.14.16-.13.14-.15.14-.15.13-.15.12-.16.12-.16.1-.16.09-.17.08-.17.07-.18.06-.18.04-.18.04-.19.02-.19.01h-.61l.03-.07.77-2.11.8-2.16.45-1.22.92-2.52.46-1.22.41-1.15 1.16-3.13.03-.07h-8.48v.05l-.37 4.15-.01.06h.36l.01-.04.05-.16.06-.17.06-.16.07-.17.08-.16.08-.15.09-.16.09-.15.09-.16.1-.14.11-.15.11-.14.12-.14.11-.13.12-.12.13-.12.1-.1.12-.1.12-.09.12-.1.14-.09.15-.1.15-.08.16-.08.16-.08.18-.07.18-.07.18-.05.2-.04.2-.03.21-.02.21-.01h.3M32.88 11.8v-.04h.04l5.43-.02h.05V11.16l-.03-.52-.05-.5-.06-.5-.07-.47-.1-.46-.1-.44-.12-.42-.14-.4-.14-.38-.17-.37-.18-.34-.09-.16-.1-.16-.1-.14-.1-.15-.1-.14-.11-.13-.12-.12-.11-.12-.13-.12-.13-.11-.13-.1-.13-.1-.14-.08-.14-.09-.14-.07-.14-.06-.15-.06-.15-.05-.15-.04-.16-.04-.16-.02-.16-.02-.16-.01h-.34l-.18.01-.17.02-.16.03-.17.04-.16.04-.16.06-.16.06-.16.07-.15.09-.16.09-.14.09-.15.1-.14.12-.15.12-.13.13-.13.13-.11.13-.12.14-.11.14-.12.15-.1.16-.1.16-.1.17-.1.17-.1.18-.08.18-.09.19-.08.19-.08.2-.07.2-.07.2-.07.21-.06.21-.06.22-.05.22-.06.23-.04.23-.08.46-.03.24-.06.49-.02.24-.02.25v.25l-.02.51.01.5.03.5.05.5.06.47.08.47.1.45.1.45.14.42.14.4.16.4.17.36.1.18.1.17.1.17.1.16.1.16.12.15.1.14.13.14.11.13.13.13.13.13.15.12.14.11.15.1.14.1.16.1.15.07.16.07.16.07.16.06.16.04.17.04.16.03.17.02.18.01h.48l.14-.02.15-.02.13-.03.14-.02.13-.04.13-.04.13-.05.12-.05.12-.05.12-.06.22-.13.2-.15.2-.16.2-.17.17-.18.17-.2.15-.2.15-.2.13-.22.13-.22.12-.22.1-.23.1-.23.1-.22.08-.23.07-.22.07-.22.06-.21.11-.41.08-.37.06-.33.04-.27v-.04l-.03-.02-.24-.1-.05-.01-.03.05-.14.28-.1.17-.1.18-.12.19-.13.2-.14.2-.16.18-.18.19-.09.09-.09.08-.1.08-.2.15-.12.07-.1.06-.13.05-.12.05-.12.04-.13.03-.13.02-.13.02h-.28l-.14-.02-.13-.01-.13-.04-.13-.03-.12-.05-.12-.05-.11-.06-.11-.08-.1-.08-.1-.09-.1-.1-.1-.1-.09-.11-.08-.12-.08-.14-.07-.13-.08-.15-.06-.16-.07-.16-.06-.18-.05-.18-.05-.19-.05-.2-.04-.2-.04-.23-.04-.22-.03-.24-.03-.24-.02-.25-.02-.26-.01-.27zm.89-6.67l.07-.07.08-.04.07-.03H34.16l.08.03.07.05.08.06.06.07.06.08.06.09.05.1.05.1.05.13.05.13.04.14.09.3.07.33.07.36.05.38.06.4.04.4.03.44.03.43.02.44.02.44v.44l.01.44v.04h-2.45v-.48l.03-.88.02-.44.03-.43.03-.43.05-.41.04-.4.06-.38.07-.36.08-.33.08-.3.1-.27.04-.12.05-.11.06-.1.06-.1.05-.07.07-.07z"/><path fill="#000" d="M17.4 19.33h.24l.23-.04.12-.02.1-.03.11-.03.1-.04.1-.04.1-.05.1-.05.08-.06.09-.06.08-.07.08-.07.08-.08.07-.08.07-.1.07-.09.07-.1.06-.1.06-.11.06-.12.05-.12.1-.26.04-.13.05-.15.07-.3.07-.33v-.05h-.04l-.24-.05-.04-.01-.02.04-.04.12-.05.1-.05.08-.05.06-.07.05-.07.04-.07.02H18.96l-.05-.02-.06-.02-.05-.04-.04-.06-.04-.07-.02-.05-.01-.05-.01-.07V9.47l-.01-.31-.02-.3-.03-.31-.05-.3-.06-.29-.06-.28-.08-.28-.1-.27-.1-.26-.12-.25-.12-.24-.14-.24-.15-.22-.15-.2-.17-.2-.18-.19-.13-.13-.15-.12-.14-.1-.15-.11-.15-.1-.15-.08-.16-.09-.16-.07-.17-.06-.16-.05-.17-.05-.17-.04-.18-.03-.18-.02-.18-.01h-.44l-.25.03-.23.04-.23.05-.21.07-.2.08-.2.08-.18.1-.16.1-.17.12-.14.11-.15.12-.12.12-.12.13-.11.12-.1.12-.13.15-.11.17-.1.16-.1.18-.1.18-.09.18-.08.19-.07.2-.07.19-.06.2-.05.2-.04.2-.04.2-.03.22-.01.2-.01.21v.05l.04.01.25.03h.04l.02-.03.12-.24.13-.22.13-.21.14-.2.15-.17.16-.16.15-.15.17-.12.18-.12.18-.1.19-.08.2-.07.2-.06.2-.04.22-.02.22-.01h.16l.17.03.16.04.15.06.15.06.14.08.13.1.12.1.08.1.08.09.06.1.05.1.04.1.04.1.01.11.01.1v.17l-.02.14-.04.14-.04.13-.05.12-.06.1-.08.12-.08.1-.1.1-.1.1-.12.08-.12.09-.13.09-.14.08-.15.08-.16.08-.42.2-.29.14-.29.14-.28.16-.3.16-.28.2-.14.09-.13.1-.14.12-.13.11-.13.13-.12.13-.12.14-.11.14-.11.16-.1.16-.1.18-.1.18-.08.2-.08.2-.07.2-.06.24-.05.23-.05.25-.03.26-.03.28-.01.29v.76l.03.24.03.24.04.25.05.25.06.25.07.25.08.25.1.24.1.24.12.23.13.22.14.2.15.2.09.1.08.08.1.1.1.08.11.08.1.08.12.07.1.06.13.06.12.05.12.04.12.04.13.03.13.03.13.03.13.01h.14l.14.01h.16l.16-.02.16-.02.16-.03.15-.04.15-.05.14-.06.15-.07.13-.07.14-.08.12-.1.13-.09.11-.1.11-.11.1-.12.1-.13.05-.05.03.06.09.13.09.12.1.12.09.1.1.1.1.1.11.07.12.07.11.07.12.05.12.05.13.03.12.03.14.02.14.02h.13zm-3.16-1.79l-.06-.06-.05-.06-.05-.07-.05-.08-.08-.17-.08-.19-.07-.2-.06-.21-.04-.22-.05-.23-.04-.22-.02-.23-.05-.41-.02-.37-.01-.27v-.65l.02-.31.01-.3.03-.3.03-.3.05-.28.05-.28.08-.27.08-.26.1-.26.13-.24.13-.24.08-.12.09-.12.09-.11.09-.11.1-.12.11-.1.21-.22.11-.11.1-.12.09-.1v.13l-.01 7.28v.07l-.01.08-.01.06-.02.07-.03.06-.03.06-.04.05-.03.05-.04.04-.05.04-.05.03-.06.03-.06.02-.07.01-.06.01h-.18l-.05-.02-.06-.02-.05-.03-.05-.03-.05-.03-.04-.05zM38 5.59v.31h1.32v10.56l.01.17.01.16.02.16.02.16.03.15.03.15.05.15.04.14.06.14.06.13.07.13.07.13.08.11.09.12.09.1.1.1.08.08.09.07.09.07.1.07.1.06.1.06.1.05.11.04.11.04.11.04.11.03.12.02.12.02.12.01.13.01h.12l.18-.01.18-.01.16-.03.16-.04.15-.05.15-.06.13-.07.13-.07.12-.09.12-.09.11-.09.1-.11.1-.11.09-.12.08-.12.08-.12.08-.13.07-.13.06-.13.06-.14.11-.27.09-.28.07-.27.06-.27.05-.26.04-.24v-.04l-.04-.02-.25-.06-.04-.01-.02.04-.09.22-.1.18-.04.09-.05.07-.06.07-.05.05-.06.06-.05.04-.06.04-.07.03-.06.03-.07.01-.06.01-.08.01-.06-.01h-.05l-.06-.02-.06-.02-.05-.03-.05-.03-.05-.03-.05-.05-.05-.04-.04-.07-.04-.07-.05-.09-.03-.1-.03-.12-.02-.13V5.9h1.62l.01-.03.52-1.22.04-.08h-2.19V.23l-.1.11-4.54 5.23-.01.02M46.5 5.66l-.12.15-.11.17-.1.16-.11.18-.1.18-.08.18-.08.19-.07.2-.07.19-.06.2-.05.2-.04.2-.04.2-.03.22-.02.2v.26l.04.01.25.03h.04l.02-.03.12-.24.12-.22.14-.21.14-.2.15-.17.15-.16.16-.15.17-.12.17-.12.19-.1.18-.08.2-.07.2-.06.2-.04.22-.02.22-.01h.17l.17.03.16.04.15.06.15.06.14.08.13.1.12.1.08.1.07.09.07.1.05.1.04.1.03.1.02.11v.27l-.02.14-.03.14-.04.13-.05.12-.07.1-.07.12-.08.1-.1.1-.1.1-.12.08-.12.09-.14.09-.13.08-.16.08-.15.08-.43.2-.28.14-.29.14-.29.16-.29.16-.28.2-.14.09-.14.1-.13.12-.13.11-.13.13-.12.13-.12.14-.12.14-.1.16-.11.16-.1.18-.09.18-.08.2-.08.2-.07.2-.06.24-.06.23-.04.25-.03.26-.03.28-.01.29-.01.3v.22l.01.24.03.24.03.24.03.25.06.25.06.25.07.25.08.25.1.24.1.24.11.23.13.22.14.2.16.2.09.1.08.08.1.1.1.08.1.08.12.08.1.07.12.06.11.06.12.05.13.04.12.04.13.03.12.03.14.03.13.01h.14l.14.01h.16l.16-.02.16-.02.15-.03.16-.04.15-.05.14-.06.14-.07.14-.07.14-.08.12-.1.13-.09.11-.1.11-.11.1-.12.1-.13.04-.05.04.06.09.13.09.12.09.12.1.1.1.1.1.1.1.07.12.07.11.07.12.05.13.05.12.03.13.03.14.02.13.02h.39l.23-.04.12-.02.1-.03.1-.03.11-.04.1-.04.1-.05.09-.05.09-.06.08-.06.09-.07.08-.07.07-.08.08-.08.07-.1.07-.09.07-.1.06-.1.06-.11.06-.12.05-.12.1-.26.04-.13.04-.15.08-.3.07-.33v-.05h-.05l-.23-.05-.05-.01-.01.04-.04.12-.05.1-.05.08-.06.06-.06.05-.07.04-.08.02h-.14l-.06-.02-.05-.02-.05-.04-.05-.06-.03-.07-.02-.05-.02-.05V9.47l-.01-.31-.02-.3-.03-.31-.05-.3-.06-.29-.06-.28-.09-.28-.09-.27-.1-.26-.12-.25-.12-.24-.14-.24-.15-.22-.16-.2-.17-.2-.17-.19-.14-.13-.14-.12-.14-.1-.15-.11-.15-.1-.15-.08-.16-.09-.16-.07-.17-.06-.16-.05-.17-.05-.18-.04-.17-.03-.18-.02-.18-.01h-.44l-.25.03-.24.04-.22.05-.21.07-.2.08-.2.08-.18.1-.17.1-.16.12-.15.11-.14.12-.13.12-.12.13-.1.12-.1.12zm3.56 11.38v.07l-.01.08-.02.06-.02.07-.02.06-.03.06-.04.05-.04.05-.04.04-.05.04-.05.03-.05.03-.06.02-.07.01-.06.01h-.18l-.06-.02-.05-.02-.05-.03-.05-.03-.05-.03-.05-.05-.05-.06-.05-.06-.05-.07-.05-.08-.08-.17-.08-.19-.07-.2-.06-.21-.05-.22-.04-.23-.04-.22-.03-.23-.04-.41-.03-.37v-.92l.01-.31.02-.3.02-.3.04-.3.04-.28.06-.28.07-.27.09-.26.1-.26.12-.24.14-.24.08-.12.09-.12.08-.11.1-.11.1-.12.1-.1.22-.22.1-.11.11-.12.09-.1v.13l-.01 7.28z"/></g></svg>
