<svg xmlns="http://www.w3.org/2000/svg" xmlns:xlink="http://www.w3.org/1999/xlink" viewBox="0 0 30 30"><defs><path id="a" d="M0 0h30v30H0z"/><path id="c" d="M.83.55H7V7H.83z"/><path id="d" d="M0 .62h6.17V7H0z"/><path id="e" d="M.83 0H7v6.45H.83z"/></defs><g fill="none" fill-rule="evenodd"><g><mask id="b" fill="#fff"><use xlink:href="#a"/></mask><path fill="#1D1D1B" d="M18.68 11.28l-2.28.01c-.07 0-.18.13-.2.22l-.27 1.05-.8 3.38c-.01.07-.08.12-.12.17-.04-.05-.11-.1-.13-.17-.08-.33-.13-.68-.22-1.02-.27-1.14-.55-2.27-.85-3.4-.02-.1-.15-.23-.23-.23-.74-.02-1.47 0-2.23 0 .01.1.01.18.03.25l1.3 3.9c.34 1.05.68 2.12 1.04 3.17.04.11.21.24.33.25.63.02 1.26 0 1.9.01.2 0 .28-.07.34-.25.24-.73.49-1.45.72-2.18l1.25-3.84.42-1.32M6.92 18.87c.02-.1.04-.14.04-.19 0-1.55 0-3.1-.02-4.66 0-.36.03-.65.38-.84.38-.2.77-.21 1.15-.09.33.1.49.4.5.74l.04 4.8c0 .18.04.24.23.24h1.92c.2 0 .26-.06.26-.27-.02-1.32.01-2.64-.02-3.96a8.52 8.52 0 0 0-.22-1.75c-.09-.38-.27-.81-.55-1.07a2.61 2.61 0 0 0-3.16-.31c-.15.09-.33.14-.5.22V8.18c0-.2-.07-.27-.26-.26H4.92c-.25-.01-.3.08-.3.32v10.34c.01.1.12.28.19.28.7.02 1.4 0 2.11 0m16.2-7.1l-.83-.41a2.32 2.32 0 0 0-1.76-.1c-.69.22-1.22.62-1.56 1.3a6.13 6.13 0 0 0 .02 5.15c.69 1.32 2.61 1.7 3.64.94.1-.08.27-.06.5-.1-.09.35-.12.6-.22.83-.06.12-.23.2-.35.3-.16.1-.3.26-.47.3-.73.16-1.44.02-2.12-.23-.21-.07-.28-.06-.35.16-.12.38-.25.77-.42 1.13-.1.24-.05.36.18.42.62.16 1.25.39 1.88.46a4.4 4.4 0 0 0 2.95-.64c.9-.59 1.21-1.48 1.21-2.52l.02-7.21c0-.22-.08-.26-.27-.26-.5 0-1.02.02-1.54 0-.32-.02-.55.02-.51.48M0 23.62V6.38l.14-.82A6.29 6.29 0 0 1 4.84.28C5.27.17 5.72.1 6.17 0h17.66l.66.14a6.3 6.3 0 0 1 4.88 3.7c.4.82.5 1.72.63 2.6v17.11l-.14.9a6.3 6.3 0 0 1-5.07 5.35l-.96.2H6.17l-.62-.14a6.2 6.2 0 0 1-5.2-4.51C.16 24.79.1 24.2 0 23.62" mask="url(#b)"/></g><path fill="#FEFEFE" d="M22.92 15.11c0-.45.04-.91-.02-1.36-.02-.23-.16-.53-.35-.65-.56-.35-1.27-.04-1.53.6a4.29 4.29 0 0 0-.19 2.35c.07.44.32.83.7 1.02.26.13.67.1.96 0 .29-.1.47-.39.44-.77-.04-.39-.01-.79-.01-1.19m.2-3.35c-.04-.46.19-.5.51-.49.52.03 1.03.01 1.54 0 .19 0 .27.05.27.27l-.01 7.2c0 1.05-.32 1.94-1.22 2.53a4.4 4.4 0 0 1-2.94.64c-.64-.07-1.27-.3-1.9-.46-.22-.06-.28-.18-.17-.42.17-.36.3-.75.42-1.13.07-.22.14-.23.35-.16.68.25 1.4.4 2.12.23.17-.04.31-.2.47-.3.12-.1.29-.18.35-.3.1-.23.13-.48.22-.83-.23.04-.4.02-.5.1-1.03.77-2.95.38-3.64-.94a6.12 6.12 0 0 1-.02-5.15c.34-.68.87-1.08 1.56-1.3.59-.18 1.2-.18 1.77.1.25.12.51.26.82.4M6.92 18.87l-2.11-.01c-.07 0-.18-.19-.18-.28v-3.9l-.01-6.44c0-.24.05-.33.3-.33.6.02 1.2.01 1.79 0 .2 0 .26.07.26.27v3.54c.17-.07.35-.12.5-.21 1-.57 2.22-.55 3.16.31.28.26.46.69.55 1.07.14.57.2 1.17.22 1.75.03 1.32 0 2.64.02 3.96 0 .2-.07.27-.26.27H9.24c-.19 0-.23-.06-.23-.25 0-1.6-.02-3.2-.04-4.79-.01-.33-.17-.63-.5-.74-.38-.12-.77-.1-1.15.1-.35.18-.39.47-.38.83.02 1.56.01 3.1.02 4.66 0 .05-.02.1-.04.19M18.68 11.28l-.42 1.32L17 16.44c-.23.73-.48 1.45-.72 2.18-.06.18-.15.26-.35.25-.63-.01-1.26.01-1.89-.01-.12 0-.3-.14-.33-.25-.36-1.05-.7-2.12-1.05-3.18-.42-1.3-.86-2.6-1.29-3.89-.02-.07-.02-.15-.03-.26l2.23.01c.08 0 .2.13.23.22.3 1.14.58 2.27.85 3.41.09.34.14.69.22 1.02.02.07.09.12.13.17.04-.05.1-.1.12-.17l.8-3.38c.08-.35.16-.7.26-1.05.03-.09.14-.22.2-.22h2.3"/><path fill="#1D1D1B" d="M22.92 15.11c0 .4-.03.8 0 1.2.04.37-.14.66-.43.76-.29.1-.7.13-.96 0a1.36 1.36 0 0 1-.7-1.02c-.12-.8-.12-1.59.2-2.36.25-.63.96-.94 1.52-.59.19.12.33.42.35.65.06.45.02.9.02 1.36"/></g></svg>
