<svg xmlns="http://www.w3.org/2000/svg" viewBox="0 0 168 20"><g fill="#1D1D1B" fill-rule="evenodd"><path d="M160.8 19.7c-3.7-1.8-5.2-4-5-7.4.2-3.1 2-5.7 4.6-6.3 2.7-.7 5 .4 6 3l1 3.3-6.3-.1c-.3 0-.5-.7-.8-1.2l3-.5c-.2-1-.3-1.8-.7-2.5-.6-1.3-2-1.3-2.6 0-1 2.2-.8 4.5.3 6.6 1 1.9 2.7 2.3 4.7 2h1.8c.5 1 0 1.5-.9 2l-2.3 1.1h-2.8zM39 19.7c-2.2-1-4-2.4-4.6-5-.5-2.9-.2-5.6 2.1-7.6 1.7-1.4 3.5-1.9 5.6-1 2.1 1 3 2.9 3.3 5v1.1h-5.8c-.2 0-.5-.6-.9-1.2l3-.5c-.2-.8-.2-1.7-.6-2.3-.3-.5-1-1-1.6-1-.4 0-1.2.5-1.4 1-.8 2.4-.7 4.9.8 7 1.4 1.9 3.5 1.8 5.6 1.4h.5c.4.8.2 1.4-.6 1.8l-2.6 1.3H39zM0 17.7l1.9-.4V4.1c-.6-.5-2.2 0-1.6-1.8H8c.3 1 .1 1.4-.9 1.5-.3 0-.8.5-.8.8v12.6c.7.5 2.3 0 1.8 2H0v-1.5zM148.1 19v-1.2l1.3-.5V4.8c0-.5-.7-.9-1-1.3l-.3.2V2.3l5.1-.7v15.7l1.6.5v1.3h-6.7zM33.3 17.1c.3 1 0 1.5-.7 1.7-1 .2-1.8.6-2.7.6-2.5.2-4-1.2-4-3.8v-7l-1.3-.2c-.2-1.8 2.8-4.7 5-4.6V14c0 2.6.5 3 3 3h.7M63 7.7c.5-1.4 1.5-1.8 2.6-2 1.5-.1 2.6.4 3.2 1.8.4.8.6 1.7.6 2.6v7.1c.6.5 2.1.3 1.5 1.9h-7l1.2-1.6c.2-.3.4-.7.4-1v-5.2c0-2.8 0-2.8-2.5-3.6M47 6.7l5-1v11.6l1.8.5V19h-7v-1.3l1.4-.5V8.4c-1 0-1.7-.4-1.3-1.7M98.3 6.6l5-1v11.7l1.5.5V19h-6.7v-1.3l1.4-.5V9c0-.3-.4-.5-.6-.8L98 7l.4-.4zM121.2 8.4c-1.2 0-1.6-.6-1.3-1.7l5.2-1v10.5c0 .5.5 1 .8 1.4l.6 1.5h-6.6v-1.3l1.3-.5v-9zM16 7.8C16 6 18.6 5 20.4 6.2c1.2.8 1.6 2 1.6 3.3v7.8c.8.4 2.1.2 1.6 1.8H17c0-.6.1-1.3.3-1.3 1.4-.4 1-1.4 1-2.3V11c0-2.1-.4-2.6-2.3-3M134 17.7v1.4h-6.8c.5-.7.9-1.1 1.1-1.6.2-.3.4-.6.4-1v-6.2c0-1.5-.3-1.8-2.4-2.6 0-1.2 1-1.6 1.9-2 1.2-.4 2.9.2 3.5 1.3.4.7.7 1.5.7 2.3v6.3c0 1.2 0 2.2 1.6 2.1M16 19H9.4v-1.2l1.5-.5V8.5c-1-.2-2-.3-1.3-1.8l5-1v10c0 .8-.2 1.7 1 2 .3 0 .3.8.6 1.4M85.1 19.2c.3-.8.4-1.5.7-2l5.5-9.5c.6-1.1 1.3-1.6 2.5-1.5h2.5l-.6 1.4-5.9 10.2c-.6 1-1.3 1.5-2.5 1.4h-2.2M58 6.6l3.9-1v10.7c0 .6 0 1.1.8 1.4.3 0 .4.8.8 1.4h-6.7c-.2-1.3-.2-1.3 1.2-1.8V6.6zM78.7 13.2V9.8c0-1.2-.1-2.2-1.4-2.7-.2 0-.4-.5-.3-.7.1-.3.5-.6.7-.6 2.4 0 4.7.8 4.8 4v6.3c0 .7 0 1.4 1 1.4v1.2c-1.2.2-2.4.6-3.6.4-.5 0-1-1.2-1.2-2-.2-1.2 0-2.6 0-3.9M145.7 16.9l1.2 1.3c-.4.3-.7.8-1.2 1-2.4 1-3.8 0-3.8-2.7V9.6c0-1-.3-1.8-1.2-2.4-.3-.1-.4-.6-.5-1 .3-.1.7-.5 1-.4 2.8.2 4.4 1 4.5 4.7.1 2.2 0 4.5 0 6.4M112.2 5.8c3.5 0 5.9 2.5 6.2 6 .4 3.7-1.7 6.8-5.4 7.6 1.8-4.7 2-9.2-.8-13.6M112.2 19.4c-3.7-.2-6-2.6-6.3-6-.3-3.9 1.6-6.7 5.5-7.7-1.9 4.7-2 9.2.8 13.7M141 12l-1 1.2c-1.4 1.4-1.3 3 .3 4.3.2.1.3 1 0 1.2-1 1.1-3.3 1-4.3-.2-1.2-1.3-1.1-3.6.3-4.5 1.3-1 2.8-1.6 4.2-2.4l.4.5M77.6 12c-.2.4-.4.9-.7 1.2-1.6 1.5-1.5 3 .3 4.2.8.6.2 1-.2 1.5-1.2 1-3.2.7-4.2-.4-1-1.3-1-3.4.2-4.4 1.3-1 2.8-1.6 4.2-2.4.2 0 .3.2.4.3M101.4.3c1 0 2 1 2 2.2 0 1.1-.8 2-1.9 2-1.1.1-2.2-.9-2.2-2s1-2.2 2-2.2M90.5 18.7l.7-.4c2 .1 2.7-1.5 3.6-3 .3-.5.8-.8 1.2-1.3l.5.3-.5 4.8h-5.3l-.2-.4M139 6.1v1.7c0 2.6.6 2.4-2.5 2.4-1 0-1.1-.5-.9-1.3.5-1.5 1.5-2.4 3.4-2.8M85.2 10.7l.4-4.3h5v.3c-.3.1-.6.5-.9.4-1.3-.2-1.8.7-2.2 1.7-.3.4-.4 1-.8 1.3l-1 1-.5-.4M72.6 10.2c-.2-2.3.8-3.6 3.2-4v3.2c0 .3-.5.7-.8.8h-2.4M56.6 9H53c0-2 .8-3.2 2.3-3.3.8 0 1.3.2 1.2 1v2.4M30.5 6.3h3.1c-.2.8-.2 1.8-.6 2-.4.4-1.5.4-1.9 0-.4-.2-.4-1.2-.6-2"/></g></svg>
