<svg xmlns="http://www.w3.org/2000/svg" viewBox="0 0 80 30">
  <g fill="none" fill-rule="evenodd">
    <path id="liberation-background" fill="#000" d="M.04 14.946L39.8536.4029 79.6515 14.946 39.8536 29.6443.04 14.946"/>
    <path fill="#1D1C1B" d="M63.6519 24.2006H66.2v-1.3535h-2.5481z"/>
    <path stroke="#1A1919" stroke-width=".525" d="M63.6519 24.2006H66.2v-1.3535h-2.5481z"/><path fill="#1D1C1B" d="M21.3987 24.216h2.3319v-2.3331h-2.3319z"/><path stroke="#1A1919" stroke-width=".525" d="M21.3987 24.216h2.3319v-2.3331h-2.3319z"/><path fill="#1D1C1B" d="M19.7617 8.46h2.3936V5.0691h-2.3936z"/><path stroke="#1A1919" stroke-width=".525" d="M19.7617 8.46h2.3936V5.0691h-2.3936z"/><path fill="#1D1C1B" d="M49.4596 7.4023h4.2008V4.6804h-4.2008z"/><path stroke="#1A1919" stroke-width=".525" d="M49.4596 7.4023h4.2008V4.6804h-4.2008z"/><path fill="#1A1919" d="M31.1434 6.2357h1.3434l1.9153-2.5041h-2.054z"/><path stroke="#1A1919" stroke-width=".525" d="M31.1434 6.2357h1.3434l1.9153-2.5041h-2.054z"/><path fill="#1D1C1B" d="M13.5226 3.7629h2.9187v18.198h3.274v2.2551h-6.1927z"/><path stroke="#1A1919" stroke-width=".525" d="M13.5226 3.7629h2.9187v18.198h3.274v2.2551h-6.1927z"/><path fill="#1D1C1B" d="M19.7153 24.216h2.363V6.9823h-2.363z"/><path stroke="#1A1919" stroke-width=".525" d="M19.7153 24.216h2.363V6.9823h-2.363z"/><path fill="#1D1C1B" d="M19.0357 6.1423h2.6562V3.7629h-2.6562z"/><path stroke="#1A1919" stroke-width=".525" d="M19.0357 6.1423h2.6562V3.7629h-2.6562z"/><path fill="#1D1C1B" d="M25.3366 8.1176c.8804-1.8819 3.6217-1.8039 3.452 1.4155v12.054c0 3.1578-2.8958 3.2975-3.452 1.7889v-.3266 1.1666h-2.548V3.7316h2.548v4.386z"/><path stroke="#1A1919" stroke-width=".525" d="M25.3366 8.1176c.8804-1.8819 3.6217-1.8039 3.452 1.4155v12.054c0 3.1578-2.8958 3.2975-3.452 1.7889v-.3266 1.1666h-2.548V3.7316h2.548v4.386z"/><path fill="#1A1919" d="M26.8655 21.8049c0 .7778-1.0808.7932-1.0808 0V9.393c0-.7774 1.0808-.762 1.0808 0v12.4119z"/><path stroke="#1A1919" stroke-width=".525" d="M26.8655 21.8049c0 .7778-1.0808.7932-1.0808 0V9.393c0-.7774 1.0808-.762 1.0808 0v12.4119z"/><path fill="#1D1C1B" d="M33.3672 17.3567h2.2702v4.6972c.1392 2.4732-2.934 2.2397-2.934 2.2397-1.2664 0-3.2434-.6065-2.703-2.5976V9.3621c0-1.8822 1.4983-2.5195 2.7647-2.5195h.0928c1.2817 0 2.7795.6373 2.7795 2.5195v6.1128h-3.351v6.33c0 .7932 1.0808.7778 1.0808 0v-4.4482z"/><path stroke="#1A1919" stroke-width=".525" d="M33.3672 17.3567h2.2702v4.6972c.1392 2.4732-2.934 2.2397-2.934 2.2397-1.2664 0-3.2434-.6065-2.703-2.5976V9.3621c0-1.8822 1.4983-2.5195 2.7647-2.5195h.0928c1.2817 0 2.7795.6373 2.7795 2.5195v6.1128h-3.351v6.33c0 .7932 1.0808.7778 1.0808 0v-4.4482z"/><path fill="#1A1919" d="M32.7187 13.9191V9.393c0-.7774 1.0809-.762 1.0809 0v4.5261h-1.0809z"/><path stroke="#1A1919" stroke-width=".525" d="M32.7187 13.9191V9.393c0-.7774 1.0809-.762 1.0809 0v4.5261h-1.0809z"/><path fill="#1D1C1B" d="M39.3438 9.0356c.2936-.4046 1.0039-.2957 1.7605.4663.7417.7465 2.394-1.2909.9731-2.3019-1.4208-1.0264-2.2855-.1401-2.7336.7466l-.0153-.0309v-.9334h-3.3051V24.216h3.3051V9.0356h.0153z"/><path stroke="#1A1919" stroke-width=".525" d="M39.3438 9.0356c.2936-.4046 1.0039-.2957 1.7605.4663.7417.7465 2.394-1.2909.9731-2.3019-1.4208-1.0264-2.2855-.1401-2.7336.7466l-.0153-.0309v-.9334h-3.3051V24.216h3.3051V9.0356h.0153z"/><path fill="#1D1C1B" d="M40.6255 21.6651V16.237c-.0153-1.773 1.0966-2.2089 3.3515-3.624V9.5486c0-.7933-1.0966-.7775-1.0966 0v2.4887h-2.2549V9.3309c0-1.8973 1.4983-2.535 2.7647-2.535h.0928c1.2817 0 2.826.4821 2.7796 2.535V24.216H43.977v-.8246c-1.328 1.6487-3.3515.9022-3.3515-.7465v-.9798z"/><path stroke="#1A1919" stroke-width=".525" d="M40.6255 21.6651V16.237c-.0153-1.773 1.0966-2.2089 3.3515-3.624V9.5486c0-.7933-1.0966-.7775-1.0966 0v2.4887h-2.2549V9.3309c0-1.8973 1.4983-2.535 2.7647-2.535h.0928c1.2817 0 2.826.4821 2.7796 2.535V24.216H43.977v-.8246c-1.328 1.6487-3.3515.9022-3.3515-.7465v-.9798z"/><path fill="#1A1919" d="M43.3902 16.2523c0-.7933.834-1.1974 1.0809-1.353v6.9056c0 .7778-1.0809.7932-1.0809 0v-5.5526z"/><path stroke="#1A1919" stroke-width=".525" d="M43.3902 16.2523c0-.7933.834-1.1974 1.0809-1.353v6.9056c0 .7778-1.0809.7932-1.0809 0v-5.5526z"/><path fill="#1D1C1B" d="M50.1387 8.9109h.6336V6.8734h-.6336V4.2917l-2.3625.8863v1.6954h-.6332V8.911h.6332v13.8428c0 2.3177 2.5327 1.6333 4.2625.6532v-1.5553c-.4634 0-1.9.0313-1.9-.6532V8.911z"/><path stroke="#1A1919" stroke-width=".525" d="M50.1387 8.9109h.6336V6.8734h-.6336V4.2917l-2.3625.8863v1.6954h-.6332V8.911h.6332v13.8428c0 2.3177 2.5327 1.6333 4.2625.6532v-1.5553c-.4634 0-1.9.0313-1.9-.6532V8.911z"/><path fill="#1D1C1B" d="M53.7217 24.2001l-.0464-17.3267h-2.4706l.0464 17.3267z"/><path stroke="#1A1919" stroke-width=".525" d="M53.7217 24.2001l-.0464-17.3267h-2.4706l.0464 17.3267z"/><path fill="#1D1C1B" d="M51.2047 6.1114h2.471V3.9647h-2.471z"/><path stroke="#1A1919" stroke-width=".525" d="M51.2047 6.1114h2.471V3.9647h-2.471z"/><path fill="#1D1C1B" d="M60.512 23.3447c-.5252 1.0577-2.0077 1.0732-2.564 1.0423-1.5906-.0776-3.1195-.8241-3.1195-2.7064V9.3467c0-1.8823 1.4983-2.52 2.7647-2.52h.108c1.5443-.2023 2.8107.4046 2.8107 2.2864 0 0-.0102 14.2316 0 14.2316z"/><path stroke="#1A1919" stroke-width=".525" d="M60.512 23.3447c-.5252 1.0577-2.0077 1.0732-2.564 1.0423-1.5906-.0776-3.1195-.8241-3.1195-2.7064V9.3467c0-1.8823 1.4983-2.52 2.7647-2.52h.108c1.5443-.2023 2.8107.4046 2.8107 2.2864 0 0-.0102 14.2316 0 14.2316z"/><path fill="#1A1919" d="M59.189 21.8049c0 .7778-1.0813.7932-1.0813 0V9.393c0-.7774 1.0812-.762 1.0812 0v12.4119z"/><path stroke="#1A1919" stroke-width=".525" d="M59.189 21.8049c0 .7778-1.0813.7932-1.0813 0V9.393c0-.7774 1.0812-.762 1.0812 0v12.4119z"/><path fill="#1D1C1B" d="M65.011 24.2001V9.3776c0-.762-.602-.7779-.602 0V24.2h-2.9652V6.8267l1.6447.5173.9034.7581c.6796-1.8042 3.5826-1.7421 3.5826 1.431v14.667H65.011z"/><path stroke="#1A1919" stroke-width=".525" d="M65.011 24.2001V9.3776c0-.762-.602-.7779-.602 0V24.2h-2.9652V6.8267l1.6447.5173.9034.7581c.6796-1.8042 3.5826-1.7421 3.5826 1.431v14.667H65.011z"/><path fill="#FFFFFE" d="M12.4877 3.234h2.5944v17.9023h2.9498v2.2551h-5.5442z"/><path stroke="#1A1919" stroke-width=".525" d="M12.4877 3.234h2.5944v17.9023h2.9498v2.2551h-5.5442z"/><path fill="#FFFFFE" d="M18.0319 23.376h2.363V6.1423h-2.363z"/><path stroke="#1A1919" stroke-width=".525" d="M18.0319 23.376h2.363V6.1423h-2.363z"/><path fill="#FFFFFE" d="M18.0166 5.3961h2.3936V3.234h-2.3936z"/><path stroke="#1A1919" stroke-width=".525" d="M18.0166 5.3961h2.3936V3.234h-2.3936z"/><path fill="#FFFFFE" d="M24.2557 7.2467c.6639-1.8197 3.3358-1.7421 3.3358 1.431V20.701c-.0928 3.3441-2.9498 3.5305-3.3358 1.6487v.9951h-2.5485V3.234h2.5485v4.0127z"/><path stroke="#1A1919" stroke-width=".525" d="M24.2557 7.2467c.6639-1.8197 3.3358-1.7421 3.3358 1.431V20.701c-.0928 3.3441-2.9498 3.5305-3.3358 1.6487v.9951h-2.5485V3.234h2.5485v4.0127z"/><path fill="#1D1C1B" d="M25.2285 20.9961c0 .7779-.988.7933-.988 0V8.5843c0-.7933.988-.7774.988 0V20.996z"/><path stroke="#1A1919" stroke-width=".525" d="M25.2285 20.9961c0 .7779-.988.7933-.988 0V8.5843c0-.7933.988-.7774.988 0V20.996z"/><path fill="#FFFFFE" d="M32.1166 16.5321h2.2698v4.3398c0 1.8818-1.4979 2.613-2.7796 2.613h-.0928c-1.2663 0-2.7642-.7312-2.7642-2.613V8.5376c0-1.8973 1.4979-2.535 2.7642-2.535h.0928c1.2817 0 2.7796.6377 2.7796 2.535v6.1127h-3.351v6.3304c0 .7933 1.0812.7779 1.0812 0v-4.4486z"/><path stroke="#1A1919" stroke-width=".525" d="M32.1166 16.5321h2.2698v4.3398c0 1.8818-1.4979 2.613-2.7796 2.613h-.0928c-1.2663 0-2.7642-.7312-2.7642-2.613V8.5376c0-1.8973 1.4979-2.535 2.7642-2.535h.0928c1.2817 0 2.7796.6377 2.7796 2.535v6.1127h-3.351v6.3304c0 .7933 1.0812.7779 1.0812 0v-4.4486z"/><path fill="#1D1C1B" d="M31.0506 13.095V8.5689c0-.7933 1.0813-.7779 1.0813 0v4.5261h-1.0813z"/><path stroke="#1A1919" stroke-width=".525" d="M31.0506 13.095V8.5689c0-.7933 1.0813-.7779 1.0813 0v4.5261h-1.0813z"/><path fill="#FFFFFE" d="M30.8502 5.178h1.3434l1.4979-1.7884h-1.9766z"/><path stroke="#1A1919" stroke-width=".525" d="M30.8502 5.178h1.3434l1.4979-1.7884h-1.9766z"/><path fill="#FFFFFE" d="M38.0004 8.211c.4634-.8241 1.0039-.342 1.7605.4046.7412.762 2.394-1.2755.9731-2.3019-1.4208-1.011-2.2855-.1247-2.7336.762l-.0153-.0467v-.8709h-2.5485v17.1866h2.5638V8.211z"/><path stroke="#1A1919" stroke-width=".525" d="M38.0004 8.211c.4634-.8241 1.0039-.342 1.7605.4046.7412.762 2.394-1.2755.9731-2.3019-1.4208-1.011-2.2855-.1247-2.7336.762l-.0153-.0467v-.8709h-2.5485v17.1866h2.5638V8.211z"/><path fill="#FFFFFE" d="M39.2821 20.763v-5.4129c-.0153-1.773 1.0966-2.2242 3.351-3.6394V8.491c.0158-.8555-1.096-.7775-1.096 0v2.6601h-2.255V8.4287c0-1.8818 1.4979-2.5196 2.7643-2.5196h.0927c1.2818 0 2.78.6378 2.78 2.5196v14.9006h-2.286v-.84c-1.328 1.6646-3.32 1.1198-3.351-.7307v-.9956z"/><path stroke="#1A1919" stroke-width=".525" d="M39.2821 20.763v-5.4129c-.0153-1.773 1.0966-2.2242 3.351-3.6394V8.491c.0158-.8555-1.096-.7775-1.096 0v2.6601h-2.255V8.4287c0-1.8818 1.4979-2.5196 2.7643-2.5196h.0927c1.2818 0 2.78.6378 2.78 2.5196v14.9006h-2.286v-.84c-1.328 1.6646-3.32 1.1198-3.351-.7307v-.9956z"/><path fill="#1D1C1B" d="M41.6604 15.4123c0-.7774.7413-1.182.9728-1.3376v6.906c0 .7779-.9728.7933-.9728 0v-5.5684z"/><path stroke="#1A1919" stroke-width=".525" d="M41.6604 15.4123c0-.7774.7413-1.182.9728-1.3376v6.906c0 .7779-.9728.7933-.9728 0v-5.5684z"/><path fill="#FFFFFE" d="M48.6255 8.0867h.6332V6.1581h-.6485l.0153-2.6288-2.363.8087v1.8201h-.6331v1.9286h.6332v13.9517c0 1.8352 2.0076 1.5245 3.0425 1.0265v-1.5553c-.448 0-.6796-.4509-.6796-1.1357V8.0867z"/><path stroke="#1A1919" stroke-width=".525" d="M48.6255 8.0867h.6332V6.1581h-.6485l.0153-2.6288-2.363.8087v1.8201h-.6331v1.9286h.6332v13.9517c0 1.8352 2.0076 1.5245 3.0425 1.0265v-1.5553c-.448 0-.6796-.4509-.6796-1.1357V8.0867z"/><path fill="#FFFFFE" d="M50.1387 23.3293h2.3319V6.1581h-2.3319z"/><path stroke="#1A1919" stroke-width=".525" d="M50.1387 23.3293h2.3319V6.1581h-2.3319z"/><path fill="#FFFFFE" d="M50.1545 5.3803h2.471V3.2494h-2.471z"/><path stroke="#1A1919" stroke-width=".525" d="M50.1545 5.3803h2.471V3.2494h-2.471z"/><path fill="#FFFFFE" d="M59.3123 16.5321v4.3398c0 1.8818-1.4672 2.5821-2.7332 2.5821h-.0927c-1.2821 0-2.811-.7003-2.811-2.5821V8.5376c0-1.8973 1.4982-2.535 2.78-2.535h.0927c1.2664 0 2.7642.6377 2.7642 2.535v7.9945z"/><path stroke="#1A1919" stroke-width=".525" d="M59.3123 16.5321v4.3398c0 1.8818-1.4672 2.5821-2.7332 2.5821h-.0927c-1.2821 0-2.811-.7003-2.811-2.5821V8.5376c0-1.8973 1.4982-2.535 2.78-2.535h.0927c1.2664 0 2.7642.6377 2.7642 2.535v7.9945z"/><path fill="#1D1C1B" d="M57.0268 20.934c0 .7779-1.0813.7933-1.0813 0V8.5221c0-.7932 1.0813-.7774 1.0813 0V20.934z"/><path stroke="#1A1919" stroke-width=".525" d="M57.0268 20.934c0 .7779-1.0813.7933-1.0813 0V8.5221c0-.7932 1.0813-.7774 1.0813 0V20.934z"/><path fill="#FFFFFE" d="M64.0536 23.3914V8.569c0-.7779-1.0196-.7933-1.0196 0v14.8225h-2.548V6.1581h2.548v1.1353c.6796-1.8197 3.3362-1.7421 3.3362 1.431v14.667h-2.3166z"/><path stroke="#1A1919" stroke-width=".525" d="M64.0536 23.3914V8.569c0-.7779-1.0196-.7933-1.0196 0v14.8225h-2.548V6.1581h2.548v1.1353c.6796-1.8197 3.3362-1.7421 3.3362 1.431v14.667h-2.3166z"/></g></svg>
