<svg xmlns="http://www.w3.org/2000/svg" xmlns:xlink="http://www.w3.org/1999/xlink" viewBox="0 0 65 69"><defs><path id="a" d="M0 0h65v69H0z"/></defs><g fill="none" fill-rule="evenodd"><mask id="b" fill="#fff"><use xlink:href="#a"/></mask><path fill="#FFF" d="M65 37.6c0-2 0-4-.4-6l-28.2 25 3.1 9a30.2 30.2 0 0 0 25.4-28zM35 54l27-26.7c-.5-2-1.2-3.8-2-5.6l-35.6 6.5L34.9 54zM60.7 18A30.5 30.5 0 0 0 32 3l-5.7 22.4 34.4-7.5zm-37.2 3.6L29.8 0c-4.8.4-9.3 2-13.2 4.3l7 17.2zm-1.8 4L12.6 9.2A30 30 0 0 0 2 31.7l19.7-6.1zM0 35a30 30 0 0 0 13 26l7.7-30.5L0 34.9zm22.7-2.6l-7 29.8c3 1.9 6.4 3.2 10 3.9l8.5-9.3-11.5-24.4zm11.8 28.2l-8 7.9a31 31 0 0 0 11.3.1l-3.3-8z" mask="url(#b)"/></g></svg>
