<svg xmlns="http://www.w3.org/2000/svg" xmlns:xlink="http://www.w3.org/1999/xlink" viewBox="0 0 65 69">
  <defs>
    <path id="logo-a" d="M64.6 36a29.9 29.9 0 0 1-25.3 29.5l-3.1-9 28-25c.3 1.4.4 2.9.4 4.3v.2zM0 36.3v-1.4l20.6-4.5-7.7 30.4A29.8 29.8 0 0 1 0 36.4v-.1zM16.5 4.4C20.4 2 24.8.5 29.6.1l-6.2 21.4-7-17zm16.7-1.3h1c11.2 0 21 5.9 26.2 14.8l-34.1 7.5L31.9 3h1.3zM2 31.7c0-8.8 4-17 10.4-22.5l9.2 16.4-19.6 6zm22.1-3.5l35.4-6.5c.8 1.8 1.5 3.7 2 5.6L34.7 53.9 24.2 28.2zM15.7 62l6.9-29.7L34 56.5l-8.5 9.3c-3.5-.7-6.8-2-9.8-3.8zm10.6 6.2l8-8 3.3 8.1a30.8 30.8 0 0 1-11.3-.1z"/>

    <path id="logo-c" d="M17.6 0h1c11.2 0 21 6 26.2 14.9l-34 7.5L16.2 0h1.3zM.1 59L7 29.2l11.4 24.2-8.5 9.3c-3.5-.7-6.8-2-9.8-3.9z"/>

    <path id="logo-e" d="M28.5 4.7A29.9 29.9 0 0 1 3.2 34l-3.1-9 28-25c.2 1.5.4 2.9.4 4.3v.3z"/>

    <path id="logo-g" d="M.1 22.6c0-8.8 4-17 10.5-22.5l9.1 16.4L.1 22.6z"/>

    <path id="logo-i" d="M.1 8l8-7.8 3.3 8A30.8 30.8 0 0 1 0 8z"/>
  </defs>

  <g transform="translate(0 .1)">
    <mask id="logo-b" fill="#fff">
      <use xlink:href="#logo-a"/>
    </mask>

    <path fill="#55B6C6" d="M-4.1 72.9h72.8V-4H-4.1z" mask="url(#logo-b)"/>
  </g>

  <g transform="translate(15.6 3.1)">
    <mask id="logo-d" fill="#fff">
      <use xlink:href="#logo-c"/>
    </mask>

    <path fill="#E7544B" d="M-4 66.9h52.9v-71H-4z" mask="url(#logo-d)"/>
  </g>

  <g transform="translate(36.1 31.5)">
    <mask id="logo-f" fill="#fff">
      <use xlink:href="#logo-e"/>
    </mask>

    <path fill="#E7544B" d="M-4 38.2h36.5V-3.9H-4z" mask="url(#logo-f)"/>
  </g>

  <g transform="translate(2 9.2)">
    <mask id="logo-h" fill="#fff">
      <use xlink:href="#logo-g"/>
    </mask>

    <path fill="#E7544B" d="M-3.9 26.7h27.7V-4H-3.9z" mask="url(#logo-h)"/>
  </g>

  <g transform="translate(26.2 60.2)">
    <mask id="logo-j" fill="#fff">
      <use xlink:href="#logo-i"/>
    </mask>

    <path fill="#55B6C6" d="M-4 12.7h19.5V-3.9H-4z" mask="url(#logo-j)"/>
  </g>
</svg>
