<svg xmlns="http://www.w3.org/2000/svg" viewBox="0 0 55 19"><defs><path id="a" d="M0 0h67.95v29.99H0z"/></defs><g fill="none" fill-rule="evenodd"><path fill="#000" fill-rule="nonzero" d="M52.75 3.82c.08-.1.5-.44.63-.53.4-.27.49-.27.29.32 0 .11-.1.54-.2.66-.33.41-.86 0-.72-.45zM49.35.96c.3-.12 1.46-.9.94 0l-.33.68c-.4.3-.97-.34-.62-.68zm-3.21 2.76c.64-1.22 1.7-1.79 2.44-1.79.55 0 1.27.57 1.27 1.1.1.7 0 1.88-.29 2.1-.37 0-1.42 1.77-1.82 1.77-.55 0-1.27 0-1.4-.63.13-.6 0-1.14-.13-1.59-.07-.53-.2-.53-.07-.96zM44.4 2.8c.15-.3.35-.41.77-.5.56-.25.56-.16.2.29-.1.2-.2.55-.51.7-.46.23-.66-.15-.46-.5zm-3.16 2.1a3.66 3.66 0 0 1 1.88-1.08c.58.2.88.2 1.43.2h.2c.2.36.52.89.42 1.45-.11.89-1.06 2-1.59 2.2-.3.21-1.4.44-1.9.21-.75-.32-.86-2.2-.44-2.97zm7.21 12.46c-.52.55-1.99 1.41-2.87.75a3.56 3.56 0 0 1-1.27-1.88h-.1c-.1 0-1.15-.2-1.6-.54-.32-.3-.94-1.43-1.15-1.66v-.1c-.33 0-.53.21-1 0-.71-.22-1.35-1.1-1.35-1.78 0-.98 1.05-2.5 2.02-2.7a8.38 8.38 0 0 1 2.15-.46c.83-.64 2.08-.88 2.08-.88s1.1-.44 1.6-.34c.86.2.86 1.43 1.17 1.67.44.21 1.2.55.99 1.73-.55 1.97 0 2.77.3 3.86-.09.77-.3 1.31-.97 2.33zm.97-9.68c.14-.57.33-1.32.75-1.8.74-.86 1.27-1.07 1.67-1.07.57.21.98.32 1.29.32.11 0 .24 0 .24.12.09.43.09 1.65-.13 2.09a4 4 0 0 1-1.27 1.65c-1.17.66-2.64.36-2.55-1.31zm3.1 6.12c-.46.34-.46.82-1.32 1.02-.92.2-1.45-1.02-1.45-1.52 0-.68.29-1 .75-1.59.3-.4.3-1.29.94-1.51 1.5-.55 1.93.97 2.02 1.95-.22.8-.53 1.36-.94 1.65zM53.78 10c-.4.32-.95-.23-.53-.64.22-.15.42-.25.62-.56.21-.44.37-.23.37.07 0 .5-.16.79-.46 1.13zM2.22 13.57c0 1.63.36 2.8 1.06 3.48.7.7 1.78 1.04 3.24 1.04a8.53 8.53 0 0 0 2.77-.4l-.5-2.6a7.02 7.02 0 0 1-1.45.18c-.46 0-.83-.13-1.12-.38-.3-.24-.43-.7-.43-1.4V7.41h3.05V4.66H5.79V1.15H2.22v3.5H.14v2.76h2.08v6.16zm16.79 4.27h3.36V9.5c0-.81-.1-1.54-.3-2.19-.2-.65-.5-1.2-.94-1.65-.43-.46-1-.8-1.71-1.05a8.07 8.07 0 0 0-2.6-.37c-1.66 0-2.98.31-3.97.93a4.14 4.14 0 0 0-1.83 2.99l3.26.3c.2-1.06 1-1.59 2.42-1.59.6 0 1.14.15 1.58.45.45.3.68.86.68 1.67v.66l-1.7.07c-.85.04-1.69.12-2.51.25-.82.14-1.56.37-2.23.69-.66.32-1.2.76-1.6 1.33-.4.58-.6 1.32-.6 2.23 0 .69.11 1.28.35 1.78s.55.9.95 1.22c.4.32.87.56 1.4.7.54.16 1.1.23 1.7.23a5.1 5.1 0 0 0 2.52-.55 6.97 6.97 0 0 0 1.77-1.44v1.67zm-.08-5.2c0 .53-.1.98-.3 1.35-.2.36-.47.66-.79.9a3.7 3.7 0 0 1-2.24.62c-.54 0-.96-.12-1.27-.38-.3-.25-.46-.6-.46-1.03 0-.29.04-.55.13-.78.08-.24.25-.44.5-.62.24-.18.6-.32 1.05-.44a9.2 9.2 0 0 1 1.8-.23l1.58-.08v.69zm5.4 5.2h10.96l.33-2.76h-6.74l6.43-8.02v-2.4H24.46V7.4h6.33l-6.46 8.03v2.4z"/></g></svg>
